<?xml version="1.0" standalone="no"?>
<!DOCTYPE svg PUBLIC "-//W3C//DTD SVG 20010904//EN"
 "http://www.w3.org/TR/2001/REC-SVG-20010904/DTD/svg10.dtd">
<svg version="1.0" xmlns="http://www.w3.org/2000/svg"
 width="300.000000pt" height="257.000000pt" viewBox="0 0 300.000000 257.000000"
 preserveAspectRatio="xMidYMid meet">
<metadata>
Created by potrace 1.10, written by Peter Selinger 2001-2011
</metadata>
<g transform="translate(0.000000,257.000000) scale(0.100000,-0.100000)"
fill="#000000" stroke="none">
<path d="M1779 2169 c-18 -18 -20 -28 -14 -67 3 -26 8 -262 11 -524 l6 -478
39 0 39 0 2 263 c1 144 1 276 1 292 -1 17 3 134 7 260 7 192 6 234 -6 253 -18
28 -57 29 -85 1z m54 -74 c-1 -22 -2 -67 -3 -100 0 -44 -3 -56 -10 -43 -6 9
-10 27 -10 40 0 12 -3 52 -6 86 -6 59 -5 64 12 60 15 -3 19 -12 17 -43z"/>
<path d="M1034 2154 c-15 -22 -16 -33 -5 -92 6 -37 13 -99 16 -138 13 -232 20
-429 17 -494 -1 -41 0 -135 4 -207 l6 -133 40 0 41 0 -7 313 c-4 171 -9 411
-11 531 -3 141 -9 224 -16 232 -19 24 -67 17 -85 -12z m63 -108 c1 -43 -2 -86
-7 -95 -7 -12 -9 -4 -10 29 0 25 -5 62 -11 83 -11 43 -6 71 13 65 8 -3 13 -32
15 -82z"/>
<path d="M1709 2106 c-3 -3 -123 -6 -267 -6 l-262 -1 0 -34 c0 -18 -2 -39 -5
-47 -4 -11 42 -13 272 -10 153 2 280 6 282 8 2 1 -1 24 -5 49 -5 26 -12 44
-15 41z m-385 -54 c2 -4 -18 -8 -46 -9 -27 -2 -47 1 -44 6 7 10 84 13 90 3z"/>
<path d="M799 2085 c-138 -10 -172 -15 -200 -33 -50 -31 -85 -71 -109 -125
-20 -45 -21 -58 -14 -213 4 -90 11 -167 15 -170 5 -3 20 3 34 12 25 16 25 17
25 168 0 147 1 153 26 193 42 64 70 75 213 84 69 4 143 8 164 9 32 0 37 3 37
23 0 30 -11 67 -19 66 -3 -1 -81 -7 -172 -14z"/>
<path d="M1922 2058 l3 -43 160 -6 c165 -6 200 -14 236 -55 36 -42 40 -64 40
-226 -1 -148 1 -160 18 -165 10 -3 23 -15 29 -28 9 -19 8 -24 -8 -28 -11 -3
-19 -2 -18 2 2 19 -4 24 -13 11 -9 -12 -10 -11 -5 4 8 23 -54 85 -199 201 -49
40 -128 111 -174 159 -46 47 -85 86 -87 86 -2 0 -4 -26 -4 -58 0 -48 4 -63 21
-78 36 -31 189 -212 189 -222 0 -37 91 -153 218 -278 24 -24 42 -51 42 -64 0
-12 -4 -20 -9 -18 -12 4 -174 187 -246 278 -118 149 -213 259 -219 253 -3 -4
-6 -28 -6 -54 0 -45 4 -53 63 -120 34 -39 80 -92 102 -118 141 -168 187 -221
215 -250 32 -31 35 -61 6 -61 -7 0 -94 87 -192 194 -99 107 -182 195 -186 195
-5 1 -8 -21 -8 -49 0 -56 3 -60 183 -244 48 -48 87 -91 87 -95 0 -3 -60 -6
-132 -6 l-133 0 -3 -37 -3 -38 178 0 c166 0 181 2 228 24 59 28 108 76 129
128 31 73 31 73 -138 228 -27 25 -46 37 -43 28 11 -33 -10 -27 -52 13 -28 27
-40 46 -36 57 3 8 0 19 -7 24 -11 6 -11 10 0 16 9 7 2 21 -30 55 -77 83 -98
110 -93 116 3 3 18 -7 33 -22 34 -34 62 -58 107 -88 19 -13 35 -30 35 -36 0
-7 6 -13 13 -13 8 0 24 -11 36 -24 13 -14 17 -23 9 -23 -7 1 -14 -1 -16 -6 -4
-12 178 -181 186 -173 13 14 15 492 2 532 -16 47 -73 110 -124 137 -36 18 -62
21 -214 25 l-173 4 3 -44z m314 -11 c4 -4 -14 -7 -39 -7 -26 0 -47 3 -47 8 0
9 76 9 86 -1z m83 -28 c24 -17 40 -33 38 -36 -3 -3 -19 4 -35 16 -17 12 -34
21 -40 21 -5 0 -15 7 -22 15 -22 27 14 18 59 -16z m-89 -849 c19 -14 21 -20
10 -23 -37 -12 -59 -14 -71 -6 -11 6 -9 12 5 28 23 25 25 25 56 1z"/>
<path d="M940 1913 c-172 -173 -388 -382 -418 -404 -32 -25 -33 -28 -25 -69
l8 -44 255 243 c243 232 255 245 258 284 2 22 0 43 -5 47 -4 5 -37 -21 -73
-57z"/>
<path d="M1707 1863 c-41 -56 -90 -99 -147 -129 -26 -13 -58 -18 -121 -18
l-85 -1 -70 50 c-39 29 -78 67 -90 89 -12 21 -24 34 -27 29 -3 -5 -3 -90 0
-188 l6 -178 64 -30 c61 -28 72 -30 179 -29 124 2 208 18 284 57 l47 24 5 93
c3 51 3 98 1 106 -4 8 -25 -9 -60 -48 -31 -33 -72 -70 -92 -81 l-36 -20 34 7
c22 4 49 22 75 49 30 32 44 40 51 32 18 -20 12 -77 -9 -93 -12 -8 -15 -14 -7
-14 38 0 -47 -54 -101 -64 -14 -2 -35 -9 -45 -14 -10 -5 -73 -8 -140 -7 -103
3 -129 7 -167 26 -48 23 -57 35 -51 65 2 11 4 23 4 27 1 5 6 5 11 2 6 -4 7
-11 4 -17 -4 -6 -3 -8 3 -5 5 4 19 -1 29 -11 10 -9 24 -17 29 -18 23 -1 65
-17 61 -23 -4 -5 47 -6 118 -2 37 2 6 13 -35 13 -60 -1 -137 31 -192 80 -41
37 -49 50 -54 88 l-5 45 58 -58 c99 -99 208 -112 352 -41 116 58 169 133 160
225 l-3 34 -38 -52z m0 -67 c-9 -7 -17 -18 -17 -23 0 -20 -63 -72 -118 -99
-46 -22 -69 -27 -126 -26 -39 0 -80 3 -91 5 -11 3 -26 6 -32 6 -7 1 -13 8 -13
16 0 8 -9 15 -19 15 -11 0 -22 9 -26 19 -3 12 -12 18 -20 15 -8 -4 -20 6 -29
24 -9 17 -21 32 -28 35 -9 4 -9 6 -1 6 6 1 32 -15 57 -34 26 -19 49 -35 53
-35 3 0 15 -8 26 -17 11 -10 17 -12 13 -5 -10 16 -5 15 53 -7 27 -11 50 -18
52 -16 2 2 22 6 44 9 40 6 96 25 105 35 3 4 18 13 34 21 16 8 43 30 59 47 17
18 33 30 36 27 3 -3 -2 -11 -12 -18z"/>
<path d="M792 1597 c-119 -117 -235 -227 -257 -244 l-39 -30 12 -54 c15 -64
50 -112 110 -150 l46 -29 194 0 193 0 -3 38 -3 37 -143 0 c-78 0 -142 2 -142
5 0 3 12 13 28 23 15 9 74 62 131 117 58 55 108 100 112 100 11 0 17 50 10 78
-7 24 -15 18 -159 -127 -83 -84 -154 -161 -158 -173 -5 -16 -12 -19 -37 -14
-17 3 -33 9 -36 12 -3 3 83 93 192 200 163 161 197 199 197 223 0 62 -6 58
-257 -192 -181 -178 -183 -180 -203 -162 -21 19 -20 20 97 137 65 66 171 167
236 226 115 104 117 107 117 149 0 24 -5 43 -11 43 -5 0 -108 -96 -227 -213z
m-172 -396 c0 -5 3 -17 6 -26 6 -15 4 -15 -14 -4 -30 19 -36 39 -12 39 11 0
20 -4 20 -9z m148 -60 c20 -12 -23 -22 -62 -13 l-31 6 30 7 c43 10 49 10 63 0z"/>
<path d="M1413 1172 l-233 -2 0 -40 0 -41 253 1 c138 1 269 4 290 7 34 5 37 8
37 39 0 19 -3 34 -7 34 -58 4 -147 5 -340 2z"/>
<path d="M1380 932 c-28 -23 -22 -67 11 -77 31 -10 72 21 63 48 -15 50 -38 58
-74 29z"/>
<path d="M1227 923 c-3 -5 -2 -38 2 -75 4 -38 5 -68 2 -68 -4 0 -15 7 -25 15
-46 35 -143 7 -183 -54 -42 -62 -26 -169 33 -220 28 -26 43 -31 83 -31 33 0
56 6 74 20 32 25 40 25 32 0 -6 -17 -2 -20 29 -20 l36 0 0 220 0 220 -39 0
c-22 0 -42 -3 -44 -7z m47 -212 c-3 -3 -14 5 -24 19 -18 23 -18 26 -2 43 16
18 17 17 25 -19 4 -20 5 -40 1 -43z m-79 15 c34 -15 35 -16 35 -74 0 -52 -3
-62 -25 -76 -61 -40 -125 -3 -125 73 0 54 7 66 40 80 34 13 36 13 75 -3z"/>
<path d="M1817 917 c-20 -7 -51 -25 -67 -40 -26 -24 -30 -36 -30 -79 0 -43 4
-54 31 -78 16 -16 40 -32 52 -36 12 -3 43 -15 70 -26 37 -16 47 -25 47 -44 0
-24 -33 -54 -61 -54 -8 0 -36 11 -62 23 l-46 24 -21 -22 c-11 -12 -20 -26 -20
-32 0 -18 101 -63 142 -63 51 0 114 33 133 70 21 41 19 102 -5 133 -11 14 -46
35 -78 47 -75 28 -102 46 -102 70 0 41 73 53 126 21 l32 -19 22 30 23 31 -24
18 c-21 16 -95 40 -116 38 -4 0 -25 -6 -46 -12z"/>
<path d="M1558 913 l-38 -4 0 -50 c0 -41 -3 -49 -19 -49 -20 0 -31 -18 -31
-52 0 -15 6 -19 28 -16 l27 3 -3 -85 c-5 -131 33 -182 121 -166 34 6 37 10 37
41 0 32 -2 34 -37 37 l-38 3 0 85 0 85 38 3 c35 3 37 5 37 38 0 34 -1 35 -37
32 l-38 -3 1 53 c1 28 -1 51 -5 50 -3 -1 -23 -3 -43 -5z m42 -135 c0 -7 -9
-19 -21 -26 -18 -11 -23 -11 -35 5 -17 23 -17 25 3 50 17 21 18 21 35 3 10
-11 18 -25 18 -32z"/>
<path d="M215 896 c-37 -17 -80 -62 -94 -99 -17 -45 -13 -147 8 -193 40 -88
156 -143 234 -110 21 8 52 25 68 37 l30 21 -27 29 c-25 26 -29 27 -44 14 -30
-27 -76 -38 -113 -26 -54 18 -80 53 -85 115 -5 67 1 95 28 124 28 29 97 30
133 2 14 -11 29 -20 34 -19 9 0 57 58 52 63 -2 2 -25 15 -50 30 -52 29 -123
34 -174 12z"/>
<path d="M2408 903 c-26 -4 -28 -8 -28 -49 0 -37 -3 -44 -17 -42 -14 2 -19 -5
-21 -36 -3 -35 -1 -38 17 -33 20 5 21 1 21 -95 0 -98 1 -100 30 -130 26 -25
36 -29 62 -24 17 3 38 6 47 6 13 0 16 7 13 34 -4 31 -8 35 -36 38 l-31 3 -3
83 -3 82 36 0 c34 0 35 1 35 40 l0 41 -35 -7 -35 -6 0 51 c0 35 -4 51 -12 50
-7 -1 -25 -4 -40 -6z m47 -114 c4 -6 -3 -21 -16 -35 -21 -22 -23 -22 -35 -6
-17 22 -17 39 -1 56 12 14 39 7 52 -15z"/>
<path d="M2906 867 c-19 -14 -19 -58 0 -64 7 -2 9 8 6 27 -2 16 0 30 4 30 5 0
10 -12 11 -26 2 -36 19 -52 41 -38 23 15 27 48 7 68 -20 19 -45 21 -69 3z m64
-31 c0 -14 -5 -28 -10 -31 -7 -4 -9 3 -5 22 3 15 2 22 -1 16 -3 -7 -10 -13
-16 -13 -6 0 -6 6 2 15 18 22 30 18 30 -9z"/>
<path d="M2600 813 l-35 -4 5 -122 c5 -135 19 -171 66 -183 36 -9 114 2 157
22 33 16 36 22 41 68 3 28 7 90 8 139 l3 87 -36 -2 -37 -3 -6 -59 c-3 -32 -6
-80 -6 -106 0 -70 -46 -102 -95 -66 -17 12 -19 26 -17 125 1 61 -1 110 -6 109
-4 -1 -23 -3 -42 -5z"/>
<path d="M486 658 c3 -84 7 -159 10 -165 2 -7 19 -13 39 -13 l35 0 0 108 c0
120 10 142 63 142 19 0 27 5 27 18 0 9 3 28 7 41 6 23 4 24 -32 18 -21 -3 -48
-16 -61 -28 l-24 -22 0 26 c0 24 -4 27 -35 27 l-35 0 6 -152z m61 76 c3 -8 -2
-23 -11 -32 -16 -16 -17 -15 -14 16 2 34 15 42 25 16z"/>
<path d="M761 792 c-50 -25 -74 -63 -78 -124 -5 -64 15 -108 69 -151 48 -39
127 -42 182 -8 20 13 36 25 36 27 0 3 -11 17 -25 32 -14 15 -25 22 -25 15 0
-6 -16 -17 -35 -23 -56 -18 -125 13 -125 57 0 5 18 7 41 5 22 -2 70 -1 106 3
l65 7 -4 43 c-12 106 -115 164 -207 117z m99 -62 c11 -6 24 -19 29 -29 9 -16
5 -18 -60 -17 -72 1 -80 7 -52 38 18 20 54 23 83 8z m-111 -59 c8 -14 6 -23
-9 -36 -20 -18 -20 -17 -20 18 0 40 13 48 29 18z"/>
<path d="M1370 650 l0 -160 44 0 44 0 -4 43 c-2 23 -6 95 -10 160 l-6 117 -34
0 -34 0 0 -160z"/>
<path d="M2090 784 c-49 -41 -63 -79 -57 -146 12 -131 125 -186 240 -118 l38
22 -23 22 c-20 19 -26 20 -43 9 -45 -30 -134 -2 -135 42 0 6 39 9 105 7 l105
-4 0 47 c0 91 -54 145 -147 145 -41 0 -58 -5 -83 -26z m109 -45 c27 -10 51
-34 51 -53 0 -3 -31 -5 -70 -3 -58 2 -70 5 -70 19 0 15 35 48 51 48 3 0 20 -5
38 -11z m-102 -75 c3 -8 -2 -23 -11 -32 -15 -15 -16 -14 -16 16 0 33 16 43 27
16z"/>
</g>
</svg>
